<svg xmlns="http://www.w3.org/2000/svg" xmlns:se="http://svg-edit.googlecode.com" xmlns:xlink="http://www.w3.org/1999/xlink" xmlns:dc="http://purl.org/dc/elements/1.1/" xmlns:cc="http://creativecommons.org/ns#" xmlns:rdf="http://www.w3.org/1999/02/22-rdf-syntax-ns#" xmlns:inkscape="http://www.inkscape.org/namespaces/inkscape" width="777" height="480">                                    <title>my vector image</title>                                    <!-- Created with Vector Paint - http://www.vectorpaint.yaks.com/ https://chrome.google.com/webstore/detail/hnbpdiengicdefcjecjbnjnoifekhgdo -->                                    <rect id="backgroundrect" width="100%" height="100%" x="0" y="0" fill="#FFFFFF" stroke="none"/>                                <g class="currentLayer" style=""><title>Layer 1</title><polyline fill="none" stroke="#222222" stroke-width="2" stroke-linejoin="round" stroke-dashoffset="" fill-rule="nonzero" marker-start="" marker-mid="" marker-end="" id="svg_1" points="104.98948479940373,102.07895105862556 104.98948479940373,102.07895105862556 104.33159005430612,102.73684580372317 103.01580056411092,104.71053003901594 100.38422158372055,109.31579325469913 95.12106362293977,119.84210917626068 90.51580040725659,134.97368831350536 85.25264244647583,157.34210964682364 84.59474770137822,176.421057254654 91.1736951523542,187.60526792131313 103.67369530920851,191.55263639189866 118.80527444645324,191.55263639189866 138.54211679938112,184.3157941958251 164.2000118581874,168.5263203134828 194.46317013267682,147.47368847035972 222.75264417187347,123.78947764684624 247.09474974048456,107.34210901940635 260.25264464243645,103.39474054882075 270.778960563998,103.39474054882075 283.2789607208523,108.65789850960154 291.17369766202347,113.26316172528472 298.410539858097,123.13158290174866 305.6473820541706,141.55263576448135 305.6473820541706,148.7894779605549 301.0421188384874,156.02632015662846 293.1473818973163,165.23684658799482 279.9894869953643,175.76316250955637 267.48948683851,186.94737317621548 253.6736971914605,201.42105756836264 239.2000127993134,215.89474196050975 226.04211789736146,225.76316313697367 218.80527570128788,231.02632109775448 212.88422299540952,233.00000533304728 208.27895977972634,234.31579482324247 206.96317028953115,234.31579482324247 206.30527554443356,234.31579482324247 205.64738079933596,234.31579482324247 205.64738079933596,234.31579482324247 204.98948605423834,234.31579482324247 204.33159130914078,233.65790007814485 203.67369656404318,232.34211058794966 202.35790707384797,231.02632109775448 199.06843334836,225.76316313697367 196.4368543679696,219.84211043109534 193.80527538757923,213.92105772521694 191.83159115228645,208.00000501933854 189.85790691699364,200.76316282326502 189.20001217189605,196.81579435267946 189.20001217189605,179.05263623504436 188.54211742679846,170.50000454877562 188.54211742679846,162.60526760760445 187.88422268170086,156.68421490172608 187.88422268170086,150.1052674507501 189.85790691699364,138.92105678409098 192.48948589738401,133.0000040782126 195.12106487777444,128.39474086252943 197.75264385816482,124.44737239194386 201.04211758365278,120.50000392135829 204.33159130914078,116.55263545077268 208.27895977972634,113.26316172528472 214.2000124856047,110.63158274489432 218.80527570128788,109.97368799979672 226.04211789736146,109.97368799979672 234.59474958363018,109.97368799979672 242.48948652480138,110.63158274489432 254.3315919365581,112.60526698018712 262.8842236228268,114.5789512154799 265.5158026032172,115.2368459605775 272.0947500541932,117.86842494096787 274.06843428948594,121.15789866645586 276.04211852477874,125.76316188213904 276.70001326987637,129.052635607627 276.70001326987637,152.0789516860429 274.72632903458356,163.92105709779963 268.14738158360757,179.05263623504436 263.5421183679244,189.57895215660594 260.910539387534,197.47368909777703 259.59474989733883,202.73684705855783 258.93685515224126,207.34211027424098 258.93685515224126,209.97368925463135 258.93685515224126,212.60526823502173 260.25264464243645,213.92105772521694 260.910539387534,214.5789524703146 262.2263288777292,216.5526367056073 265.5158026032172,217.86842619580256 266.8315920934124,217.86842619580256 274.06843428948594,217.86842619580256 278.6736975051691,216.5526367056073 285.91053970124267,213.26316298011938 294.46317138751147,210.63158399972892 301.700013583585,206.6842155291434 309.59475052475614,202.0789523134602 316.1736979757321,196.81579435267946 322.0947506816105,189.57895215660594 327.35790864239124,183.0000047056299 330.64738236787923,176.421057254654 333.9368560933672,169.18421505858038 334.59475083846485,161.28947811740926 334.59475083846485,156.68421490172608 334.59475083846485,155.3684254115309 331.9631718580744,154.71053066643327 329.33159287768405,154.71053066643327 326.7000138972937,154.71053066643327 324.72632966200086,155.3684254115309 322.0947506816105,157.34210964682364 320.7789611914153,159.31579388211645 318.8052769561225,163.92105709779963 316.83159272082975,169.18421505858038 314.85790848553694,179.05263623504436 313.54211899534175,181.68421521543473 311.56843476004894,191.55263639189866 309.59475052475614,197.47368909777703 307.6210662894634,204.05263654875301 304.989487309073,209.31579450953376 304.3315925639754,213.26316298011938 303.0158030737802,215.89474196050975 303.0158030737802,216.5526367056073 303.0158030737802,216.5526367056073 303.0158030737802,215.89474196050975 303.67369781887777,215.23684721541215 305.6473820541706,212.60526823502173 308.9368557796586,208.6578997644362 314.2000137404393,205.3684260389482 317.4894874659273,204.71053129385058 320.7789611914153,204.71053129385058 322.7526454267081,204.71053129385058 323.4105401718057,205.3684260389482 323.4105401718057,206.02632078404582 323.4105401718057,208.00000501933854 323.4105401718057,209.97368925463135 323.4105401718057,210.63158399972892 324.0684349169033,211.28947874482657 325.3842244070985,211.28947874482657 329.33159287768405,211.28947874482657 331.9631718580744,209.97368925463135 335.91054032866003,208.6578997644362 338.5421193090504,206.02632078404582 339.85790879924554,205.3684260389482 339.85790879924554,204.71053129385058 339.85790879924554,204.71053129385058 339.85790879924554,204.05263654875301 339.85790879924554,204.05263654875301 339.85790879924554,204.05263654875301 338.5421193090504,205.3684260389482 338.5421193090504,206.02632078404582 337.8842245639528,206.6842155291434 337.8842245639528,206.6842155291434 337.8842245639528,207.34211027424098 338.5421193090504,207.34211027424098 340.5158035443432,207.34211027424098 344.46317201492883,206.6842155291434 349.068435230612,204.71053129385058 355.6473826815879,200.76316282326502 365.51580385805187,194.1842153722891 367.4894880933446,191.55263639189866 375.3842250345158,178.39474148994674 378.01580401490617,173.78947827426356 378.01580401490617,170.50000454877562 378.01580401490617,170.50000454877562 378.01580401490617,169.842109803678 377.3579092698086,169.842109803678 374.06843554432066,171.8157940389708 366.17369860314943,182.34210996053233 358.2789616619783,192.86842588209385 351.7000142110023,204.05263654875301 347.09475099531915,211.94737348992416 346.4368562502216,215.89474196050975 349.7263299757096,218.52632094090012 353.6736984462952,218.52632094090012 358.9368564070759,218.52632094090012 365.51580385805187,218.52632094090012 372.7526460541254,215.89474196050975 382.62106723058935,209.97368925463135 389.2000146815653,203.3947418036554 395.77896213254127,194.1842153722891 402.35790958351726,185.63158368602026 408.2789622893957,176.421057254654 411.5684360148836,170.50000454877562 412.2263307599812,165.23684658799482 412.2263307599812,159.97368862721407 410.25264652468843,158.00000439192127 408.2789622893957,158.00000439192127 405.64738330900525,158.00000439192127 401.70001483841963,161.94737286250682 395.1210673874437,171.8157940389708 389.85790942666284,181.68421521543473 383.9368567207846,193.52632062719147 381.30527774039416,201.42105756836264 380.6473829952966,211.28947874482657 385.91054095607734,222.47368941148568 389.2000146815653,224.4473736467785 407.621067544298,229.7105316075593 423.4105414266403,229.7105316075593 437.22633107368983,228.3947421173641 447.7526469952514,225.1052683918761 455.64738393642256,221.81579466638811 458.93685766191055,219.84211043109534 460.9105418972033,217.86842619580256 464.8579103677889,214.5789524703146 466.83159460308167,213.26316298011938 468.1473840932769,211.94737348992416 467.48948934817935,213.26316298011938 465.5158051128865,215.89474196050975 461.5684366423009,221.81579466638811 456.96317342661774,228.3947421173641 455.64738393642256,233.65790007814485 454.98948919132494,235.63158431343766 455.64738393642256,236.94737380363281 458.278962916813,236.94737380363281 463.54212087759373,236.94737380363281 468.8052788383745,236.28947905853522 476.04212103444803,233.00000533304728 481.9631737403264,227.73684737226648 483.9368579756192,223.1315841565833 484.5947527207168,217.86842619580256 483.2789632305215,214.5789524703146 480.6473842501312,212.60526823502173 476.70001577954565,211.28947874482657 472.09475256386247,211.28947874482657 464.8579103677889,211.94737348992416 457.6210681717154,215.23684721541215 453.6736997011297,217.21053145070496 452.35791021093456,217.86842619580256 451.700015465837,218.52632094090012 " style="color: rgb(0, 0, 0);"/></g></svg>